<?xml version="1.0" encoding="UTF-8" standalone="no"?>
<svg
   xmlns:dc="http://purl.org/dc/elements/1.1/"
   xmlns:cc="http://creativecommons.org/ns#"
   xmlns:rdf="http://www.w3.org/1999/02/22-rdf-syntax-ns#"
   xmlns:svg="http://www.w3.org/2000/svg"
   xmlns="http://www.w3.org/2000/svg"
   xmlns:sodipodi="http://sodipodi.sourceforge.net/DTD/sodipodi-0.dtd"
   xmlns:inkscape="http://www.inkscape.org/namespaces/inkscape"
   enable-background="new 0 0 96 96"
   height="96px"
   version="1.1"
   viewBox="0 0 96 96"
   width="96px"
   xml:space="preserve"
   id="svg4639"
   sodipodi:docname="temperatureIcon_BandTile.svg"
   inkscape:version="0.92.0 r"><metadata
     id="metadata4645"><rdf:RDF><cc:Work
         rdf:about=""><dc:format>image/svg+xml</dc:format><dc:type
           rdf:resource="http://purl.org/dc/dcmitype/StillImage" /></cc:Work></rdf:RDF></metadata><defs
     id="defs4643" /><sodipodi:namedview
     pagecolor="#ffffff"
     bordercolor="#666666"
     borderopacity="1"
     objecttolerance="10"
     gridtolerance="10"
     guidetolerance="10"
     inkscape:pageopacity="0"
     inkscape:pageshadow="2"
     inkscape:window-width="1436"
     inkscape:window-height="855"
     id="namedview4641"
     showgrid="false"
     inkscape:zoom="4.8097993"
     inkscape:cx="14.141989"
     inkscape:cy="58.784782"
     inkscape:window-x="4"
     inkscape:window-y="23"
     inkscape:window-maximized="0"
     inkscape:current-layer="svg4639" /><g
     id="Dibujo"
     style="fill:#ffffff"
     transform="matrix(1.8076461,0,0,1.8076461,-38.767011,-38.767011)"><g
       id="g4636"
       style="fill:#ffffff"><path
         d="M 50,58.424 V 47 c 0,-1.104 -0.896,-2 -2,-2 -1.105,0 -2,0.896 -2,2 v 11.424 c -1.763,0.773 -3,2.531 -3,4.576 0,2.757 2.243,5 5,5 2.757,0 5,-2.243 5,-5 0,-2.045 -1.237,-3.803 -3,-4.576 z M 48,64 c -0.552,0 -1,-0.448 -1,-1 0,-0.552 0.448,-1 1,-1 0.552,0 1,0.448 1,1 0,0.552 -0.448,1 -1,1 z"
         id="path4632"
         style="fill:#ffffff"
         inkscape:connector-curvature="0" /><path
         d="M 56.009,55.459 56,30 c 0,-4.411 -3.589,-8 -8,-8 -4.411,0 -8,3.589 -8,7.999 l -0.01,25.46 C 38.08,57.492 37,60.192 37,63 c 0,6.065 4.935,11 11,11 6.065,0 11,-4.935 11,-11 0,-2.809 -1.08,-5.509 -2.991,-7.541 z M 48,70 c -3.859,0 -7,-3.141 -7,-7 0,-1.984 0.848,-3.885 2.327,-5.213 0.422,-0.38 0.663,-0.92 0.663,-1.487 L 44,30 c 0,-2.206 1.794,-4 4,-4 2.206,0 4,1.794 4,4.001 L 52.009,56.3 c 0,0.567 0.241,1.108 0.664,1.487 C 54.151,59.115 55,61.015 55,63 c 0,3.859 -3.141,7 -7,7 z"
         id="path4634"
         style="fill:#ffffff"
         inkscape:connector-curvature="0" /></g></g></svg>